<svg id="Слой_1" data-name="Слой 1" xmlns="http://www.w3.org/2000/svg" viewBox="0 0 141.61 140.22"><defs><style>.cls-1{fill:#0e1977;}.cls-2,.cls-3{fill:none;stroke-linecap:round;stroke-miterlimit:10;stroke-width:8.87px;}.cls-2{stroke:#fff;}.cls-3{stroke:#0e1977;}</style></defs><title>icons-1</title><path class="cls-1" d="M22.78,70.51c0-28.23,21.61-51.12,48.27-51.12s48.27,22.89,48.27,51.12-21.61,51.12-48.27,51.12S22.78,98.74,22.78,70.51" transform="translate(-0.84 -0.75)"/><polyline class="cls-2" points="44.73 68.15 62.19 89.17 99.59 51.05"/><path class="cls-3" d="M134.12,101.93,103,132.74a13.11,13.11,0,0,1-9.24,3.8H49.56a13.11,13.11,0,0,1-9.24-3.8L9.18,101.93a13.12,13.12,0,0,1-3.9-9.34V49.14a13.1,13.1,0,0,1,3.9-9.33L40.32,9a13.11,13.11,0,0,1,9.24-3.8H93.74A13.11,13.11,0,0,1,103,9l31.14,30.82a13.1,13.1,0,0,1,3.9,9.33V92.59A13.12,13.12,0,0,1,134.12,101.93Z" transform="translate(-0.84 -0.75)"/></svg>