<?xml version="1.0" encoding="UTF-8"?><svg xmlns="http://www.w3.org/2000/svg" xmlns:xlink="http://www.w3.org/1999/xlink" viewBox="0 0 61.33 64.54"><defs><style>.cls-1{fill:#fff;}.cls-2{isolation:isolate;}.cls-3{fill:#232323;}.cls-4{fill:url(#radial-gradient);mix-blend-mode:multiply;opacity:.8;}</style><radialGradient id="radial-gradient" cx="31.65" cy="34.86" fx="31.65" fy="34.86" r="29.68" gradientTransform="matrix(1, 0, 0, 1, 0, 0)" gradientUnits="userSpaceOnUse"><stop offset="0" stop-color="#000057"/><stop offset=".39" stop-color="#7474a4" stop-opacity=".54"/><stop offset=".79" stop-color="#d8d8e5" stop-opacity=".15"/><stop offset="1" stop-color="#fff" stop-opacity="0"/></radialGradient></defs><g class="cls-2"><g id="_лой_1"><g><circle class="cls-4" cx="31.65" cy="34.86" r="29.68"/><g><circle class="cls-3" cx="23.83" cy="23.83" r="23.83"/><path class="cls-1" d="M10.17,23.27s11.92-4.89,16.06-6.62c1.58-.69,6.96-2.89,6.96-2.89,0,0,2.48-.96,2.27,1.38-.07,.96-.62,4.34-1.17,7.99-.83,5.17-1.72,10.82-1.72,10.82,0,0-.14,1.59-1.31,1.86-1.17,.28-3.1-.96-3.45-1.24-.28-.21-5.17-3.31-6.96-4.82-.48-.41-1.03-1.24,.07-2.21,2.48-2.27,5.44-5.1,7.24-6.89,.83-.83,1.65-2.76-1.79-.41-4.89,3.38-9.72,6.55-9.72,6.55,0,0-1.1,.69-3.17,.07-2.07-.62-4.48-1.45-4.48-1.45,0,0-1.65-1.03,1.17-2.14h0Z"/></g></g></g></g></svg>