<?xml version="1.0" encoding="UTF-8"?><svg id="_лой_1" xmlns="http://www.w3.org/2000/svg" viewBox="0 0 47.66 47.66"><defs><style>.cls-1{fill:#fff;}.cls-2{fill:#232323;}</style></defs><circle class="cls-2" cx="23.83" cy="23.83" r="23.83"/><path class="cls-1" d="M23.47,33.47h2.03s.61-.07,.93-.41c.29-.31,.28-.89,.28-.89,0,0-.04-2.73,1.23-3.13,1.25-.4,2.85,2.64,4.54,3.81,1.28,.88,2.26,.69,2.26,.69l4.54-.06s2.37-.15,1.25-2.02c-.09-.15-.66-1.38-3.37-3.91-2.84-2.65-2.46-2.22,.96-6.8,2.09-2.79,2.92-4.49,2.66-5.22-.25-.69-1.78-.51-1.78-.51l-5.1,.03s-.38-.05-.66,.12c-.27,.17-.45,.55-.45,.55,0,0-.81,2.16-1.89,3.99-2.27,3.87-3.18,4.08-3.56,3.83-.86-.56-.65-2.25-.65-3.45,0-3.75,.57-5.32-1.11-5.72-.56-.13-.96-.22-2.38-.24-1.82-.02-3.37,0-4.24,.43-.58,.29-1.03,.92-.76,.96,.34,.05,1.1,.21,1.51,.76,.52,.71,.51,2.32,.51,2.32,0,0,.3,4.42-.7,4.97-.69,.38-1.63-.39-3.66-3.91-1.04-1.8-1.82-3.79-1.82-3.79,0,0-.15-.37-.42-.57-.33-.24-.79-.32-.79-.32l-4.85,.03s-.73,.02-1,.34c-.24,.28-.02,.87-.02,.87,0,0,3.8,8.91,8.1,13.41,3.95,4.12,8.43,3.85,8.43,3.85h0Z"/></svg>