<?xml version="1.0" encoding="UTF-8"?><svg xmlns="http://www.w3.org/2000/svg" xmlns:xlink="http://www.w3.org/1999/xlink" viewBox="0 0 61.57 65.73"><defs><style>.cls-1{fill:#fff;}.cls-2{isolation:isolate;}.cls-3{fill:#232323;}.cls-4{fill:url(#radial-gradient);mix-blend-mode:multiply;opacity:.8;}</style><radialGradient id="radial-gradient" cx="31.88" cy="36.05" fx="31.88" fy="36.05" r="29.68" gradientTransform="matrix(1, 0, 0, 1, 0, 0)" gradientUnits="userSpaceOnUse"><stop offset="0" stop-color="#000057"/><stop offset=".39" stop-color="#7474a4" stop-opacity=".54"/><stop offset=".79" stop-color="#d8d8e5" stop-opacity=".15"/><stop offset="1" stop-color="#fff" stop-opacity="0"/></radialGradient></defs><g class="cls-2"><g id="_лой_1"><g><circle class="cls-4" cx="31.88" cy="36.05" r="29.68"/><g><circle class="cls-3" cx="23.83" cy="23.83" r="23.83"/><path class="cls-1" d="M35.41,20.81c0-2.81-2.27-5.08-5.08-5.08h-12.99c-2.81,0-5.08,2.27-5.08,5.08v6.04c0,2.81,2.27,5.08,5.08,5.08h12.99c2.81,0,5.08-2.27,5.08-5.08v-6.04Zm-7.64,3.48l-5.82,2.88c-.23,.12-1-.04-1-.3v-5.92c0-.26,.78-.43,1.01-.3l5.58,3.03c.23,.13,.48,.47,.24,.6Z"/></g></g></g></g></svg>